<?xml version="1.0" encoding="iso-8859-1"?>
<!-- Uploaded to: SVG Repo, www.svgrepo.com, Generator: SVG Repo Mixer Tools -->
<svg fill="#000000" version="1.1" id="Layer_1" xmlns="http://www.w3.org/2000/svg" xmlns:xlink="http://www.w3.org/1999/xlink" 
	 viewBox="0 0 512 512" xml:space="preserve">
<g>
	<g>
		<path d="M453.486,65.829v29.257c0,72.713-58.944,131.657-131.657,131.657H0v58.514h86.929
			C65.733,296.205,51.2,318.316,51.2,343.771c0,36.298,29.531,65.829,65.829,65.829h117.029c36.298,0,65.829-29.531,65.829-65.829
			c0-25.455-14.533-47.566-35.729-58.514h57.672c72.713,0,131.657,58.944,131.657,131.657v29.257H512V65.829H453.486z
			 M234.057,365.714H117.029c-12.099,0-21.943-9.844-21.943-21.943s9.844-21.943,21.943-21.943h117.029
			c12.099,0,21.943,9.844,21.943,21.943S246.156,365.714,234.057,365.714z"/>
	</g>
</g>
<g>
	<g>
		<rect x="153.6" y="124.343" width="43.886" height="58.514"/>
	</g>
</g>
<g>
	<g>
		<rect x="65.829" y="124.343" width="43.886" height="58.514"/>
	</g>
</g>
<g>
	<g>
		<rect x="241.371" y="124.343" width="43.886" height="58.514"/>
	</g>
</g>
</svg>